sample
<glyph name="dollar" format="2">
  <advance width="576"/>
  <unicode hex="0024"/>
  <outline>
    <contour>
      <point x="308" y="-30" type="curve" smooth="yes"/>
      <point x="180" y="-30"/>
      <point x="95" y="60"/>
      <point x="95" y="63" type="curve" smooth="yes"/>
      <point x="95" y="94"/>
      <point x="93" y="124"/>
      <point x="93" y="154" type="curve" smooth="yes"/>
      <point x="93" y="178"/>
      <point x="94" y="202"/>
      <point x="94" y="226" type="curve"/>
      <point x="65" y="226" type="line"/>
      <point x="65" y="171"/>
      <point x="64" y="109"/>
      <point x="64" y="56" type="curve"/>
      <point x="68" y="56"/>
      <point x="144" y="-42"/>
      <point x="291" y="-52" type="curve"/>
      <point x="289" y="-52" type="line"/>
      <point x="289" y="-76"/>
      <point x="288" y="-102"/>
      <point x="288" y="-127" type="curve" smooth="yes"/>
      <point x="288" y="-177" type="line"/>
      <point x="317" y="-177" type="line"/>
      <point x="317" y="-136"/>
      <point x="318" y="-93"/>
      <point x="319" y="-52" type="curve"/>
      <point x="466" y="-45"/>
      <point x="530" y="50"/>
      <point x="536" y="160" type="curve"/>
      <point x="530" y="450"/>
      <point x="90" y="260"/>
      <point x="85" y="538" type="curve" smooth="yes"/>
      <point x="86" y="673"/>
      <point x="200" y="710"/>
      <point x="300" y="710" type="curve" smooth="yes"/>
      <point x="380" y="710"/>
      <point x="440" y="661"/>
      <point x="442" y="660" type="curve"/>
      <point x="442" y="609"/>
      <point x="445" y="554"/>
      <point x="445" y="501" type="curve"/>
      <point x="467" y="501" type="line"/>
      <point x="467" y="672" type="line"/>
      <point x="435" y="704"/>
      <point x="362" y="728"/>
      <point x="317" y="728" type="curve"/>
      <point x="317" y="772" type="line" smooth="yes"/>
      <point x="317" y="799"/>
      <point x="318" y="829"/>
      <point x="318" y="856" type="curve"/>
      <point x="289" y="856" type="line"/>
      <point x="289" y="829"/>
      <point x="288" y="799"/>
      <point x="288" y="772" type="curve" smooth="yes"/>
      <point x="288" y="729" type="line"/>
      <point x="179" y="729"/>
      <point x="60" y="681"/>
      <point x="60" y="536" type="curve" smooth="yes"/>
      <point x="60" y="230"/>
      <point x="511" y="426"/>
      <point x="511" y="160" type="curve" smooth="yes"/>
      <point x="511" y="104"/>
      <point x="470" y="-30"/>
    </contour>
  </outline>
</glyph>
<glyph name="parenleft" format="2">
  <advance width="295"/>
  <unicode hex="0028"/>
  <outline>
    <contour>
      <point x="51" y="300" type="curve"/>
      <point x="50" y="35"/>
      <point x="243" y="-139"/>
      <point x="244" y="-139" type="curve" smooth="yes"/>
      <point x="275" y="-139" type="line"/>
      <point x="275" y="-139"/>
      <point x="89" y="28"/>
      <point x="80" y="301" type="curve"/>
      <point x="86" y="578"/>
      <point x="269" y="737"/>
      <point x="269" y="737" type="curve"/>
      <point x="244" y="740" type="line"/>
      <point x="244" y="740"/>
      <point x="50" y="564"/>
    </contour>
  </outline>
</glyph>
<glyph name="one" format="2">
  <advance width="311"/>
  <unicode hex="0031"/>
  <outline>
    <contour>
      <point x="187" y="534" type="line"/>
      <point x="169" y="537" type="line"/>
      <point x="95" y="476" type="line" smooth="yes"/>
      <point x="80" y="463"/>
      <point x="62" y="449"/>
      <point x="50" y="438" type="curve"/>
      <point x="56" y="417" type="line"/>
      <point x="98" y="451" type="line" smooth="yes"/>
      <point x="118" y="467"/>
      <point x="140" y="482"/>
      <point x="159" y="499" type="curve"/>
      <point x="156" y="60" type="line"/>
      <point x="156" y="30"/>
      <point x="146" y="24"/>
      <point x="129" y="23" type="curve"/>
      <point x="129" y="23"/>
      <point x="100" y="20"/>
      <point x="71" y="20" type="curve"/>
      <point x="71" y="-2" type="line"/>
      <point x="106" y="-2"/>
      <point x="274" y="-2"/>
      <point x="281" y="0" type="curve"/>
      <point x="281" y="20" type="line"/>
      <point x="250" y="20"/>
      <point x="206" y="20"/>
      <point x="206" y="20" type="curve"/>
      <point x="186" y="20"/>
      <point x="183" y="37"/>
      <point x="183" y="60" type="curve" smooth="yes"/>
    </contour>
  </outline>
</glyph>
<glyph name="three" format="2">
  <advance width="481"/>
  <unicode hex="0033"/>
  <outline>
    <contour>
      <point x="215" y="-260" type="curve" smooth="yes"/>
      <point x="357" y="-260"/>
      <point x="451" y="-171"/>
      <point x="451" y="-23" type="curve" smooth="yes"/>
      <point x="451" y="-18"/>
      <point x="451" y="-14"/>
      <point x="451" y="-9" type="curve" smooth="yes"/>
      <point x="451" y="-7"/>
      <point x="451" y="-5"/>
      <point x="451" y="-3" type="curve" smooth="yes"/>
      <point x="451" y="55"/>
      <point x="411" y="194"/>
      <point x="251" y="194" type="curve" smooth="yes"/>
      <point x="232" y="194"/>
      <point x="211" y="192"/>
      <point x="188" y="188" type="curve"/>
      <point x="198" y="193"/>
      <point x="370" y="244"/>
      <point x="370" y="392" type="curve" smooth="yes"/>
      <point x="370" y="469"/>
      <point x="319" y="553"/>
      <point x="200" y="553" type="curve" smooth="yes"/>
      <point x="70" y="553"/>
      <point x="32" y="426"/>
      <point x="32" y="434" type="curve"/>
      <point x="46" y="422" type="line"/>
      <point x="45" y="422"/>
      <point x="94" y="529"/>
      <point x="206" y="529" type="curve" smooth="yes"/>
      <point x="308" y="529"/>
      <point x="342" y="449"/>
      <point x="342" y="384" type="curve"/>
      <point x="335" y="261"/>
      <point x="220" y="207"/>
      <point x="117" y="184" type="curve"/>
      <point x="117" y="175"/>
      <point x="118" y="170"/>
      <point x="120" y="160" type="curve"/>
      <point x="155" y="172"/>
      <point x="190" y="179"/>
      <point x="224" y="179" type="curve" smooth="yes"/>
      <point x="327" y="179"/>
      <point x="422" y="119"/>
      <point x="422" y="-16" type="curve" smooth="yes"/>
      <point x="422" y="-149"/>
      <point x="359" y="-232"/>
      <point x="211" y="-240" type="curve" smooth="yes"/>
      <point x="113" y="-245"/>
      <point x="41" y="-186"/>
      <point x="53" y="-174" type="curve" smooth="yes"/>
      <point x="56" y="-171"/>
      <point x="59" y="-165"/>
      <point x="59" y="-159" type="curve" smooth="yes"/>
      <point x="59" y="-149"/>
      <point x="53" y="-140"/>
      <point x="37" y="-140" type="curve" smooth="yes"/>
      <point x="25" y="-140"/>
      <point x="20" y="-148"/>
      <point x="20" y="-158" type="curve" smooth="yes"/>
      <point x="20" y="-165"/>
      <point x="22" y="-172"/>
      <point x="26" y="-178" type="curve" smooth="yes"/>
      <point x="69" y="-238"/>
      <point x="146" y="-260"/>
    </contour>
  </outline>
</glyph>
<glyph name="eight" format="2">
  <advance width="495"/>
  <unicode hex="0038"/>
  <outline>
    <contour>
      <point x="68" y="568" type="curve" smooth="yes"/>
      <point x="68" y="448"/>
      <point x="175" y="389"/>
      <point x="217" y="371" type="curve"/>
      <point x="209" y="366"/>
      <point x="40" y="282"/>
      <point x="40" y="161" type="curve" smooth="yes"/>
      <point x="40" y="34"/>
      <point x="130" y="-29"/>
      <point x="252" y="-29" type="curve" smooth="yes"/>
      <point x="354" y="-29"/>
      <point x="455" y="36"/>
      <point x="455" y="171" type="curve" smooth="yes"/>
      <point x="455" y="282"/>
      <point x="318" y="353"/>
      <point x="275" y="374" type="curve"/>
      <point x="314" y="390"/>
      <point x="416" y="459"/>
      <point x="421" y="559" type="curve" smooth="yes"/>
      <point x="426" y="659"/>
      <point x="367" y="745"/>
      <point x="240" y="747" type="curve" smooth="yes"/>
      <point x="130" y="749"/>
      <point x="68" y="663"/>
    </contour>
    <contour>
      <point x="68" y="161" type="curve" smooth="yes"/>
      <point x="68" y="285"/>
      <point x="244" y="356"/>
      <point x="244" y="356" type="curve"/>
      <point x="251" y="355"/>
      <point x="427" y="281"/>
      <point x="426" y="170" type="curve" smooth="yes"/>
      <point x="425" y="49"/>
      <point x="331" y="-2"/>
      <point x="252" y="-2" type="curve" smooth="yes"/>
      <point x="158" y="-2"/>
      <point x="68" y="49"/>
    </contour>
    <contour>
      <point x="394" y="559" type="curve" smooth="yes"/>
      <point x="386" y="443"/>
      <point x="259" y="392"/>
      <point x="246" y="387" type="curve"/>
      <point x="246" y="387"/>
      <point x="97" y="430"/>
      <point x="94" y="569" type="curve" smooth="yes"/>
      <point x="92" y="646"/>
      <point x="153" y="726"/>
      <point x="243" y="725" type="curve" smooth="yes"/>
      <point x="342" y="724"/>
      <point x="401" y="665"/>
    </contour>
  </outline>
</glyph>
<glyph name="nine" format="2">
  <advance width="500"/>
  <unicode hex="0039"/>
  <outline>
    <contour>
      <point x="220" y="6" type="curve" smooth="yes"/>
      <point x="368" y="6"/>
      <point x="412" y="145"/>
      <point x="415" y="157" type="curve"/>
      <point x="402" y="93"/>
      <point x="365" y="-118"/>
      <point x="163" y="-221" type="curve"/>
      <point x="163" y="-221"/>
      <point x="174" y="-239"/>
      <point x="175" y="-241" type="curve"/>
      <point x="325" y="-162"/>
      <point x="450" y="8"/>
      <point x="450" y="268" type="curve" smooth="yes"/>
      <point x="450" y="406"/>
      <point x="397" y="539"/>
      <point x="244" y="540" type="curve" smooth="yes"/>
      <point x="109" y="538"/>
      <point x="30" y="422"/>
      <point x="31" y="278" type="curve" smooth="yes"/>
      <point x="31" y="271" type="line" smooth="yes"/>
      <point x="31" y="263"/>
      <point x="30" y="256"/>
      <point x="30" y="249" type="curve" smooth="yes"/>
      <point x="30" y="113"/>
      <point x="92" y="7"/>
    </contour>
    <contour>
      <point x="222" y="27" type="curve" smooth="yes"/>
      <point x="119" y="28"/>
      <point x="57" y="117"/>
      <point x="57" y="279" type="curve" smooth="yes"/>
      <point x="57" y="383"/>
      <point x="113" y="519"/>
      <point x="245" y="519" type="curve" smooth="yes"/>
      <point x="371" y="519"/>
      <point x="422" y="402"/>
      <point x="422" y="266" type="curve" smooth="yes"/>
      <point x="422" y="216"/>
      <point x="389" y="27"/>
    </contour>
  </outline>
</glyph>
<glyph name="equal" format="2">
  <advance width="435"/>
  <unicode hex="003D"/>
  <outline>
    <contour>
      <point x="395" y="363" type="line"/>
      <point x="395" y="386" type="line"/>
      <point x="40" y="389" type="line"/>
      <point x="40" y="363" type="line"/>
    </contour>
    <contour>
      <point x="395" y="182" type="line"/>
      <point x="395" y="184"/>
      <point x="395" y="206"/>
      <point x="395" y="206" type="curve"/>
      <point x="40" y="208" type="line"/>
      <point x="40" y="182" type="line"/>
      <point x="277" y="182" type="line"/>
      <point x="337" y="182" type="line"/>
    </contour>
  </outline>
</glyph>
<glyph name="F" format="2">
  <advance width="573"/>
  <unicode hex="0046"/>
  <outline>
    <contour>
      <point x="20" y="695" type="line" smooth="yes"/>
      <point x="20" y="689"/>
      <point x="20" y="687"/>
      <point x="20" y="687" type="curve"/>
      <point x="29" y="687"/>
      <point x="70" y="685"/>
      <point x="80" y="685" type="curve" smooth="yes"/>
      <point x="110" y="685"/>
      <point x="115" y="680"/>
      <point x="115" y="670" type="curve" smooth="yes"/>
      <point x="125" y="40" type="line"/>
      <point x="126" y="30"/>
      <point x="120" y="20"/>
      <point x="100" y="20" type="curve" smooth="yes"/>
      <point x="32" y="20" type="line"/>
      <point x="32" y="-2" type="line"/>
      <point x="61" y="-1"/>
      <point x="263" y="-1"/>
      <point x="264" y="0" type="curve"/>
      <point x="264" y="6"/>
      <point x="263" y="14"/>
      <point x="263" y="21" type="curve"/>
      <point x="201" y="21" type="line" smooth="yes"/>
      <point x="167" y="21"/>
      <point x="155" y="30"/>
      <point x="153" y="40" type="curve"/>
      <point x="147" y="136"/>
      <point x="149" y="216"/>
      <point x="148" y="313" type="curve"/>
      <point x="153" y="313"/>
      <point x="161" y="313"/>
      <point x="172" y="313" type="curve" smooth="yes"/>
      <point x="215" y="313"/>
      <point x="323" y="312"/>
      <point x="378" y="312" type="curve" smooth="yes"/>
      <point x="402" y="312"/>
      <point x="407" y="310"/>
      <point x="408" y="280" type="curve"/>
      <point x="408" y="280"/>
      <point x="409" y="248"/>
      <point x="411" y="216" type="curve"/>
      <point x="432" y="216" type="line"/>
      <point x="430" y="289"/>
      <point x="429" y="380"/>
      <point x="429" y="453" type="curve"/>
      <point x="421" y="453" type="line" smooth="yes"/>
      <point x="418" y="453"/>
      <point x="411" y="454"/>
      <point x="410" y="454" type="curve"/>
      <point x="409" y="432"/>
      <point x="407" y="370"/>
      <point x="407" y="370" type="curve"/>
      <point x="406" y="340"/>
      <point x="400" y="334"/>
      <point x="386" y="334" type="curve" smooth="yes"/>
      <point x="249" y="336" type="line" smooth="yes"/>
      <point x="215" y="336"/>
      <point x="180" y="336"/>
      <point x="146" y="337" type="curve"/>
      <point x="145" y="435"/>
      <point x="143" y="536"/>
      <point x="143" y="630" type="curve" smooth="yes"/>
      <point x="143" y="651"/>
      <point x="143" y="668"/>
      <point x="144" y="686" type="curve"/>
      <point x="160" y="687"/>
      <point x="178" y="688"/>
      <point x="198" y="688" type="curve" smooth="yes"/>
      <point x="308" y="688"/>
      <point x="430" y="693"/>
      <point x="500" y="690" type="curve" smooth="yes"/>
      <point x="524" y="690"/>
      <point x="527" y="680"/>
      <point x="527" y="646" type="curve" smooth="yes"/>
      <point x="527" y="614"/>
      <point x="528" y="550"/>
      <point x="529" y="523" type="curve"/>
      <point x="537" y="522"/>
      <point x="545" y="523"/>
      <point x="553" y="523" type="curve"/>
      <point x="552" y="534"/>
      <point x="551" y="587"/>
      <point x="551" y="637" type="curve" smooth="yes"/>
      <point x="551" y="710" type="line"/>
      <point x="308" y="710" type="line" smooth="yes"/>
      <point x="227" y="710"/>
      <point x="145" y="709"/>
      <point x="64" y="709" type="curve" smooth="yes"/>
      <point x="20" y="710" type="line"/>
    </contour>
  </outline>
</glyph>
<glyph name="L" format="2">
  <advance width="547"/>
  <unicode hex="004C"/>
  <outline>
    <contour>
      <point x="27" y="23" type="line"/>
      <point x="27" y="0" type="line"/>
      <point x="527" y="0" type="line"/>
      <point x="527" y="186" type="line"/>
      <point x="503" y="186" type="line"/>
      <point x="503" y="131"/>
      <point x="502" y="100"/>
      <point x="502" y="63" type="curve"/>
      <point x="501" y="36"/>
      <point x="497" y="26"/>
      <point x="477" y="26" type="curve" smooth="yes"/>
      <point x="200" y="26" type="line" smooth="yes"/>
      <point x="157" y="26"/>
      <point x="157" y="50"/>
      <point x="157" y="77" type="curve" smooth="yes"/>
      <point x="157" y="657" type="line" smooth="yes"/>
      <point x="157" y="680"/>
      <point x="162" y="687"/>
      <point x="187" y="686" type="curve" smooth="yes"/>
      <point x="211" y="685"/>
      <point x="267" y="686"/>
      <point x="291" y="686" type="curve"/>
      <point x="291" y="708" type="line"/>
      <point x="244" y="708"/>
      <point x="189" y="711"/>
      <point x="141" y="712" type="curve" smooth="yes"/>
      <point x="20" y="715" type="line"/>
      <point x="20" y="692" type="line"/>
      <point x="56" y="690"/>
      <point x="86" y="690"/>
      <point x="100" y="690" type="curve" smooth="yes"/>
      <point x="123" y="690"/>
      <point x="128" y="677"/>
      <point x="128" y="659" type="curve" smooth="yes"/>
      <point x="128" y="581"/>
      <point x="129" y="439"/>
      <point x="129" y="312" type="curve" smooth="yes"/>
      <point x="129" y="139" type="line"/>
      <point x="128" y="83"/>
      <point x="127" y="70"/>
      <point x="127" y="60" type="curve"/>
      <point x="130" y="30"/>
      <point x="109" y="24"/>
      <point x="90" y="24" type="curve" smooth="yes"/>
    </contour>
  </outline>
</glyph>
<glyph name="S" format="2">
  <advance width="580"/>
  <unicode hex="0053"/>
  <outline>
    <contour>
      <point x="318" y="-27" type="curve" smooth="yes"/>
      <point x="258" y="-27"/>
      <point x="169" y="-8"/>
      <point x="94" y="65" type="curve"/>
      <point x="93" y="117"/>
      <point x="94" y="174"/>
      <point x="93" y="226" type="curve"/>
      <point x="86" y="226"/>
      <point x="75" y="225"/>
      <point x="67" y="226" type="curve"/>
      <point x="67" y="198"/>
      <point x="66" y="150"/>
      <point x="66" y="109" type="curve" smooth="yes"/>
      <point x="66" y="88"/>
      <point x="67" y="70"/>
      <point x="67" y="56" type="curve"/>
      <point x="68" y="56"/>
      <point x="154" y="-53"/>
      <point x="325" y="-53" type="curve" smooth="yes"/>
      <point x="463" y="-48"/>
      <point x="540" y="32"/>
      <point x="540" y="169" type="curve" smooth="yes"/>
      <point x="532" y="446"/>
      <point x="93" y="250"/>
      <point x="90" y="537" type="curve" smooth="yes"/>
      <point x="90" y="666"/>
      <point x="196" y="702"/>
      <point x="303" y="702" type="curve" smooth="yes"/>
      <point x="379" y="702"/>
      <point x="440" y="660"/>
      <point x="439" y="660" type="curve"/>
      <point x="441" y="606"/>
      <point x="441" y="553"/>
      <point x="442" y="499" type="curve"/>
      <point x="450" y="499"/>
      <point x="457" y="500"/>
      <point x="465" y="500" type="curve"/>
      <point x="466" y="557"/>
      <point x="467" y="614"/>
      <point x="467" y="671" type="curve" smooth="yes"/>
      <point x="467" y="675"/>
      <point x="397" y="728"/>
      <point x="289" y="728" type="curve" smooth="yes"/>
      <point x="179" y="728"/>
      <point x="60" y="681"/>
      <point x="60" y="535" type="curve" smooth="yes"/>
      <point x="60" y="228"/>
      <point x="508" y="432"/>
      <point x="508" y="159" type="curve" smooth="yes"/>
      <point x="508" y="106"/>
      <point x="487" y="-26"/>
    </contour>
  </outline>
</glyph>
<glyph name="backslash" format="2">
  <advance width="477"/>
  <unicode hex="005C"/>
  <outline>
    <contour>
      <point x="457" y="-59" type="line"/>
      <point x="47" y="759" type="line"/>
      <point x="20" y="760" type="line"/>
      <point x="156" y="487"/>
      <point x="292" y="213"/>
      <point x="429" y="-60" type="curve"/>
    </contour>
  </outline>
</glyph>
<glyph name="bracketright" format="2">
  <advance width="278"/>
  <unicode hex="005D"/>
  <outline>
    <contour>
      <point x="178" y="-136" type="curve"/>
      <point x="177" y="-64"/>
      <point x="175" y="666"/>
      <point x="175" y="740" type="curve"/>
      <point x="128" y="739"/>
      <point x="80" y="738"/>
      <point x="32" y="738" type="curve"/>
      <point x="30" y="716" type="line"/>
      <point x="146" y="716" type="line"/>
      <point x="146" y="661"/>
      <point x="151" y="100"/>
      <point x="151" y="-69" type="curve" smooth="yes"/>
      <point x="151" y="-90"/>
      <point x="151" y="-105"/>
      <point x="151" y="-112" type="curve"/>
      <point x="32" y="-112" type="line"/>
      <point x="32" y="-133" type="line"/>
      <point x="48" y="-133"/>
      <point x="162" y="-135"/>
    </contour>
  </outline>
</glyph>
<glyph name="asciicircum" format="2">
  <advance width="403"/>
  <unicode hex="005E"/>
  <outline>
    <contour>
      <point x="40" y="383" type="line"/>
      <point x="66" y="383" type="line"/>
      <point x="75" y="404"/>
      <point x="191" y="646"/>
      <point x="200" y="667" type="curve"/>
      <point x="334" y="393" type="line"/>
      <point x="363" y="393" type="line"/>
      <point x="211" y="700" type="line"/>
      <point x="188" y="698" type="line"/>
    </contour>
  </outline>
</glyph>
<glyph name="grave" format="2">
  <advance width="229"/>
  <unicode hex="0060"/>
  <outline>
    <contour>
      <point x="41" y="720" type="curve" smooth="yes"/>
      <point x="43" y="710"/>
      <point x="59" y="699"/>
      <point x="59" y="699" type="curve"/>
      <point x="89" y="671"/>
      <point x="175" y="597"/>
      <point x="175" y="596" type="curve"/>
      <point x="180" y="601"/>
      <point x="185" y="605"/>
      <point x="189" y="610" type="curve"/>
      <point x="156" y="644" type="line" smooth="yes"/>
      <point x="126" y="675"/>
      <point x="97" y="711"/>
      <point x="65" y="737" type="curve"/>
      <point x="51" y="744"/>
      <point x="38" y="736"/>
    </contour>
  </outline>
</glyph>
<glyph name="d" format="2">
  <advance width="658"/>
  <unicode hex="0064"/>
  <outline>
    <contour>
      <point x="21" y="691" type="curve"/>
      <point x="42" y="691"/>
      <point x="78" y="693"/>
      <point x="100" y="693" type="curve" smooth="yes"/>
      <point x="119" y="693"/>
      <point x="137" y="690"/>
      <point x="137" y="666" type="curve" smooth="yes"/>
      <point x="137" y="663"/>
      <point x="149" y="62"/>
      <point x="148" y="45" type="curve" smooth="yes"/>
      <point x="147" y="30"/>
      <point x="142" y="18"/>
      <point x="118" y="18" type="curve" smooth="yes"/>
      <point x="86" y="18" type="line"/>
      <point x="40" y="18" type="line"/>
      <point x="40" y="-5" type="line"/>
      <point x="86" y="-4"/>
      <point x="121" y="-4"/>
      <point x="146" y="-4" type="curve" smooth="yes"/>
      <point x="204" y="-4"/>
      <point x="235" y="-7"/>
      <point x="342" y="-7" type="curve" smooth="yes"/>
      <point x="559" y="-7"/>
      <point x="628" y="168"/>
      <point x="628" y="340" type="curve" smooth="yes"/>
      <point x="628" y="499"/>
      <point x="562" y="708"/>
      <point x="324" y="714" type="curve" smooth="yes"/>
      <point x="258" y="716"/>
      <point x="222" y="716"/>
      <point x="181" y="716" type="curve" smooth="yes"/>
      <point x="139" y="716"/>
      <point x="94" y="715"/>
      <point x="20" y="713" type="curve"/>
      <point x="20" y="705"/>
      <point x="21" y="698"/>
    </contour>
    <contour>
      <point x="309" y="693" type="curve"/>
      <point x="322" y="693" type="line" smooth="yes"/>
      <point x="564" y="687"/>
      <point x="600" y="424"/>
      <point x="600" y="339" type="curve" smooth="yes"/>
      <point x="600" y="231"/>
      <point x="561" y="13"/>
      <point x="345" y="15" type="curve" smooth="yes"/>
      <point x="230" y="16"/>
      <point x="223" y="16"/>
      <point x="217" y="16" type="curve" smooth="yes"/>
      <point x="188" y="16"/>
      <point x="178" y="16"/>
      <point x="178" y="46" type="curve" smooth="yes"/>
      <point x="179" y="122"/>
      <point x="176" y="155"/>
      <point x="176" y="164" type="curve"/>
      <point x="176" y="164"/>
      <point x="176" y="164"/>
      <point x="176" y="164" type="curve"/>
      <point x="176" y="146"/>
      <point x="167" y="672"/>
      <point x="167" y="692" type="curve"/>
      <point x="172" y="692"/>
      <point x="201" y="694"/>
      <point x="231" y="694" type="curve" smooth="yes"/>
      <point x="263" y="694"/>
      <point x="299" y="694"/>
    </contour>
  </outline>
</glyph>
<glyph name="brokenbar" format="2">
  <advance width="234"/>
  <unicode hex="00A6"/>
  <outline>
    <contour>
      <point x="130" y="377" type="line"/>
      <point x="132" y="436"/>
      <point x="128" y="489"/>
      <point x="132" y="743" type="curve"/>
      <point x="130" y="743"/>
      <point x="103" y="743"/>
      <point x="103" y="743" type="curve"/>
      <point x="100" y="377" type="line"/>
    </contour>
    <contour>
      <point x="134" y="223" type="line"/>
      <point x="126" y="224"/>
      <point x="113" y="224"/>
      <point x="107" y="224" type="curve"/>
      <point x="104" y="-141" type="line"/>
      <point x="131" y="-141" type="line"/>
      <point x="131" y="-104"/>
      <point x="132" y="-60"/>
      <point x="132" y="-20" type="curve" smooth="yes"/>
    </contour>
  </outline>
</glyph>
<glyph name="mu" format="2">
  <advance width="557"/>
  <unicode hex="00B5"/>
  <outline>
    <contour>
      <point x="218" y="460" type="curve"/>
      <point x="219" y="466"/>
      <point x="219" y="470"/>
      <point x="219" y="477" type="curve"/>
      <point x="217" y="477"/>
      <point x="207" y="478"/>
      <point x="194" y="478" type="curve" smooth="yes"/>
      <point x="66" y="478" type="line"/>
      <point x="58" y="478" type="line" smooth="yes"/>
      <point x="42" y="478"/>
      <point x="28" y="479"/>
      <point x="20" y="479" type="curve"/>
      <point x="20" y="456" type="line"/>
      <point x="33" y="456"/>
      <point x="54" y="456"/>
      <point x="66" y="456" type="curve" smooth="yes"/>
      <point x="81" y="456"/>
      <point x="100" y="450"/>
      <point x="100" y="430" type="curve"/>
      <point x="100" y="430"/>
      <point x="102" y="256"/>
      <point x="102" y="159" type="curve" smooth="yes"/>
      <point x="102" y="106" type="line" smooth="yes"/>
      <point x="102" y="75"/>
      <point x="102" y="22"/>
      <point x="101" y="-72" type="curve"/>
      <point x="102" y="-156" type="line" smooth="yes"/>
      <point x="102" y="-184"/>
      <point x="94" y="-192"/>
      <point x="55" y="-192" type="curve" smooth="yes"/>
      <point x="20" y="-192" type="line"/>
      <point x="20" y="-215" type="line"/>
      <point x="56" y="-215"/>
      <point x="210" y="-215"/>
      <point x="220" y="-213" type="curve"/>
      <point x="220" y="-191" type="line"/>
      <point x="158" y="-192" type="line" smooth="yes"/>
      <point x="145" y="-192"/>
      <point x="128" y="-190"/>
      <point x="126" y="-160" type="curve"/>
      <point x="126" y="-74"/>
      <point x="126" y="-12"/>
      <point x="126" y="74" type="curve"/>
      <point x="147" y="25"/>
      <point x="200" y="-2"/>
      <point x="274" y="-2" type="curve" smooth="yes"/>
      <point x="389" y="-2"/>
      <point x="425" y="114"/>
      <point x="432" y="127" type="curve"/>
      <point x="432" y="0" type="line"/>
      <point x="537" y="0" type="line"/>
      <point x="537" y="16" type="line"/>
      <point x="537" y="16"/>
      <point x="512" y="16"/>
      <point x="489" y="18" type="curve" smooth="yes"/>
      <point x="473" y="19"/>
      <point x="460" y="20"/>
      <point x="458" y="44" type="curve"/>
      <point x="455" y="258" type="line" smooth="yes"/>
      <point x="454" y="320"/>
      <point x="454" y="370"/>
      <point x="454" y="434" type="curve" smooth="yes"/>
      <point x="454" y="448"/>
      <point x="469" y="453"/>
      <point x="482" y="453" type="curve" smooth="yes"/>
      <point x="494" y="453"/>
      <point x="512" y="453"/>
      <point x="524" y="453" type="curve"/>
      <point x="524" y="475" type="line"/>
      <point x="485" y="474"/>
      <point x="362" y="475"/>
      <point x="345" y="474" type="curve"/>
      <point x="345" y="467"/>
      <point x="346" y="460"/>
      <point x="346" y="453" type="curve"/>
      <point x="360" y="453"/>
      <point x="380" y="453"/>
      <point x="400" y="453" type="curve" smooth="yes"/>
      <point x="424" y="453"/>
      <point x="429" y="440"/>
      <point x="429" y="430" type="curve" smooth="yes"/>
      <point x="430" y="337"/>
      <point x="429" y="260"/>
      <point x="431" y="167" type="curve"/>
      <point x="425" y="167"/>
      <point x="402" y="21"/>
      <point x="275" y="21" type="curve" smooth="yes"/>
      <point x="270" y="21" type="line" smooth="yes"/>
      <point x="151" y="21"/>
      <point x="129" y="101"/>
      <point x="129" y="156" type="curve" smooth="yes"/>
      <point x="127" y="253"/>
      <point x="126" y="334"/>
      <point x="126" y="430" type="curve" smooth="yes"/>
      <point x="127" y="450"/>
      <point x="138" y="460"/>
      <point x="158" y="460" type="curve" smooth="yes"/>
      <point x="178" y="460"/>
      <point x="201" y="460"/>
    </contour>
  </outline>
</glyph>
<glyph name="afii10033" format="2">
  <advance width="699"/>
  <unicode hex="041F"/>
  <outline>
    <contour>
      <point x="20" y="705" type="line"/>
      <point x="20" y="693" type="line" smooth="yes"/>
      <point x="20" y="689"/>
      <point x="21" y="683"/>
      <point x="21" y="681" type="curve"/>
      <point x="36" y="681"/>
      <point x="100" y="680"/>
      <point x="100" y="680" type="curve"/>
      <point x="126" y="680"/>
      <point x="132" y="670"/>
      <point x="132" y="648" type="curve" smooth="yes"/>
      <point x="132" y="47" type="line" smooth="yes"/>
      <point x="132" y="30"/>
      <point x="124" y="17"/>
      <point x="96" y="17" type="curve" smooth="yes"/>
      <point x="87" y="17"/>
      <point x="51" y="17"/>
      <point x="42" y="17" type="curve"/>
      <point x="42" y="-3" type="line"/>
      <point x="58" y="-4"/>
      <point x="85" y="-4"/>
      <point x="116" y="-4" type="curve" smooth="yes"/>
      <point x="177" y="-4"/>
      <point x="250" y="-3"/>
      <point x="264" y="-2" type="curve"/>
      <point x="265" y="16" type="line"/>
      <point x="241" y="16"/>
      <point x="199" y="17"/>
      <point x="180" y="17" type="curve" smooth="yes"/>
      <point x="165" y="17"/>
      <point x="157" y="30"/>
      <point x="157" y="47" type="curve" smooth="yes"/>
      <point x="160" y="679" type="line"/>
      <point x="178" y="681"/>
      <point x="538" y="682"/>
      <point x="549" y="683" type="curve"/>
      <point x="554" y="468"/>
      <point x="557" y="258"/>
      <point x="562" y="43" type="curve" smooth="yes"/>
      <point x="562" y="28"/>
      <point x="549" y="20"/>
      <point x="532" y="20" type="curve"/>
      <point x="532" y="20"/>
      <point x="481" y="18"/>
      <point x="457" y="18" type="curve"/>
      <point x="457" y="0" type="line"/>
      <point x="679" y="0" type="line"/>
      <point x="677" y="20" type="line"/>
      <point x="661" y="20"/>
      <point x="624" y="20"/>
      <point x="609" y="20" type="curve" smooth="yes"/>
      <point x="592" y="20"/>
      <point x="585" y="27"/>
      <point x="587" y="40" type="curve"/>
      <point x="582" y="178"/>
      <point x="580" y="296"/>
      <point x="577" y="660" type="curve" smooth="yes"/>
      <point x="577" y="680"/>
      <point x="589" y="680"/>
      <point x="605" y="680" type="curve" smooth="yes"/>
      <point x="624" y="680"/>
      <point x="655" y="682"/>
      <point x="674" y="682" type="curve"/>
      <point x="674" y="685"/>
      <point x="673" y="692"/>
      <point x="673" y="708" type="curve"/>
      <point x="176" y="705" type="line"/>
    </contour>
  </outline>
</glyph>
<glyph name="afii10037" format="2">
  <advance width="640"/>
  <unicode hex="0423"/>
  <outline>
    <contour>
      <point x="86" y="667" type="curve" smooth="yes"/>
      <point x="89" y="659"/>
      <point x="211" y="221"/>
      <point x="211" y="221" type="curve"/>
      <point x="276" y="221"/>
      <point x="341" y="220"/>
      <point x="406" y="220" type="curve"/>
      <point x="389" y="166"/>
      <point x="330" y="27"/>
      <point x="274" y="-27" type="curve"/>
      <point x="272" y="-23"/>
      <point x="264" y="-8"/>
      <point x="247" y="-8" type="curve" smooth="yes"/>
      <point x="235" y="-8"/>
      <point x="223" y="-19"/>
      <point x="223" y="-32" type="curve" smooth="yes"/>
      <point x="223" y="-52"/>
      <point x="239" y="-58"/>
      <point x="254" y="-59" type="curve" smooth="yes"/>
      <point x="273" y="-60"/>
      <point x="292" y="-48"/>
      <point x="305" y="-30" type="curve"/>
      <point x="360" y="33"/>
      <point x="450" y="231"/>
      <point x="551" y="581" type="curve" smooth="yes"/>
      <point x="573" y="660" type="line"/>
      <point x="578" y="673"/>
      <point x="580" y="688"/>
      <point x="596" y="687" type="curve"/>
      <point x="659" y="690" type="line"/>
      <point x="659" y="694"/>
      <point x="660" y="705"/>
      <point x="660" y="708" type="curve"/>
      <point x="604" y="708" type="line" smooth="yes"/>
      <point x="571" y="708"/>
      <point x="537" y="707"/>
      <point x="504" y="707" type="curve" smooth="yes"/>
      <point x="442" y="707" type="line"/>
      <point x="442" y="700"/>
      <point x="443" y="693"/>
      <point x="443" y="686" type="curve"/>
      <point x="459" y="686"/>
      <point x="476" y="685"/>
      <point x="492" y="685" type="curve" smooth="yes"/>
      <point x="495" y="685"/>
      <point x="510" y="685"/>
      <point x="513" y="685" type="curve" smooth="yes"/>
      <point x="536" y="685"/>
      <point x="551" y="682"/>
      <point x="543" y="657" type="curve"/>
      <point x="511" y="536"/>
      <point x="474" y="418"/>
      <point x="416" y="246" type="curve"/>
      <point x="406" y="247"/>
      <point x="242" y="247"/>
      <point x="234" y="247" type="curve"/>
      <point x="235" y="247"/>
      <point x="119" y="663"/>
      <point x="119" y="664" type="curve" smooth="yes"/>
      <point x="119" y="678"/>
      <point x="130" y="679"/>
      <point x="142" y="680" type="curve" smooth="yes"/>
      <point x="171" y="682"/>
      <point x="206" y="682"/>
      <point x="227" y="682" type="curve"/>
      <point x="227" y="686"/>
      <point x="228" y="706"/>
      <point x="228" y="706" type="curve"/>
      <point x="177" y="706"/>
      <point x="117" y="705"/>
      <point x="61" y="705" type="curve" smooth="yes"/>
      <point x="33" y="705"/>
      <point x="5" y="706"/>
      <point x="-20" y="706" type="curve"/>
      <point x="-20" y="684" type="line"/>
      <point x="2" y="684"/>
      <point x="26" y="683"/>
      <point x="47" y="683" type="curve" smooth="yes"/>
      <point x="69" y="683"/>
      <point x="80" y="682"/>
    </contour>
  </outline>
</glyph>
<glyph name="afii10039" format="2">
  <advance width="666"/>
  <unicode hex="0425"/>
  <outline>
    <contour>
      <point x="431" y="714" type="line"/>
      <point x="431" y="707"/>
      <point x="432" y="700"/>
      <point x="432" y="693" type="curve"/>
      <point x="466" y="692"/>
      <point x="539" y="701"/>
      <point x="521" y="664" type="curve"/>
      <point x="497" y="625"/>
      <point x="482" y="609"/>
      <point x="443" y="550" type="curve" smooth="yes"/>
      <point x="324" y="371" type="line"/>
      <point x="321" y="374"/>
      <point x="150" y="647"/>
      <point x="139" y="665" type="curve"/>
      <point x="127" y="690"/>
      <point x="162" y="692"/>
      <point x="181" y="692" type="curve" smooth="yes"/>
      <point x="230" y="692" type="line"/>
      <point x="230" y="712" type="line"/>
      <point x="169" y="712"/>
      <point x="110" y="717"/>
      <point x="42" y="717" type="curve" smooth="yes"/>
      <point x="28" y="717"/>
      <point x="14" y="716"/>
      <point x="0" y="716" type="curve"/>
      <point x="0" y="695" type="line"/>
      <point x="31" y="694"/>
      <point x="79" y="704"/>
      <point x="99" y="676" type="curve"/>
      <point x="117" y="656"/>
      <point x="295" y="355"/>
      <point x="306" y="345" type="curve"/>
      <point x="112" y="40" type="line" smooth="yes"/>
      <point x="102" y="24"/>
      <point x="93" y="14"/>
      <point x="69" y="14" type="curve" smooth="yes"/>
      <point x="9" y="14" type="line"/>
      <point x="9" y="12"/>
      <point x="8" y="6"/>
      <point x="8" y="4" type="curve" smooth="yes"/>
      <point x="8" y="-3" type="line"/>
      <point x="178" y="-5" type="line" smooth="yes"/>
      <point x="196" y="-5"/>
      <point x="214" y="-6"/>
      <point x="232" y="-6" type="curve"/>
      <point x="230" y="15" type="line"/>
      <point x="221" y="15"/>
      <point x="180" y="14"/>
      <point x="169" y="14" type="curve" smooth="yes"/>
      <point x="144" y="14"/>
      <point x="129" y="20"/>
      <point x="146" y="46" type="curve"/>
      <point x="146" y="46"/>
      <point x="320" y="325"/>
      <point x="322" y="327" type="curve"/>
      <point x="502" y="67" type="line" smooth="yes"/>
      <point x="533" y="19"/>
      <point x="544" y="16"/>
      <point x="477" y="16" type="curve" smooth="yes"/>
      <point x="423" y="16" type="line"/>
      <point x="423" y="-4" type="line"/>
      <point x="549" y="-4" type="line" smooth="yes"/>
      <point x="586" y="-4"/>
      <point x="625" y="-3"/>
      <point x="662" y="-3" type="curve"/>
      <point x="662" y="-1"/>
      <point x="666" y="17"/>
      <point x="666" y="17" type="curve"/>
      <point x="624" y="17" type="line" smooth="yes"/>
      <point x="604" y="17"/>
      <point x="574" y="15"/>
      <point x="566" y="26" type="curve" smooth="yes"/>
      <point x="402" y="259" type="line"/>
      <point x="341" y="349" type="line"/>
      <point x="415" y="461"/>
      <point x="478" y="556"/>
      <point x="553" y="668" type="curve"/>
      <point x="569" y="698"/>
      <point x="600" y="690"/>
      <point x="616" y="690" type="curve" smooth="yes"/>
      <point x="655" y="690" type="line"/>
      <point x="655" y="711" type="line"/>
      <point x="655" y="710"/>
      <point x="544" y="714"/>
      <point x="479" y="714" type="curve" smooth="yes"/>
    </contour>
  </outline>
</glyph>
<glyph name="afii10094" format="2">
  <advance width="593"/>
  <unicode hex="044C"/>
  <outline>
    <contour>
      <point x="147" y="670" type="line"/>
      <point x="146" y="680"/>
      <point x="153" y="690"/>
      <point x="175" y="690" type="curve" smooth="yes"/>
      <point x="204" y="690"/>
      <point x="248" y="690"/>
      <point x="249" y="690" type="curve"/>
      <point x="249" y="714" type="line"/>
      <point x="247" y="714"/>
      <point x="186" y="713"/>
      <point x="133" y="713" type="curve" smooth="yes"/>
      <point x="20" y="713" type="line"/>
      <point x="20" y="693" type="line"/>
      <point x="87" y="693" type="line" smooth="yes"/>
      <point x="105" y="693"/>
      <point x="116" y="690"/>
      <point x="117" y="670" type="curve"/>
      <point x="115" y="60" type="line"/>
      <point x="115" y="36"/>
      <point x="103" y="24"/>
      <point x="88" y="24" type="curve" smooth="yes"/>
      <point x="29" y="25" type="line"/>
      <point x="30" y="4" type="line"/>
      <point x="102" y="4" type="line" smooth="yes"/>
      <point x="173" y="4"/>
      <point x="246" y="2"/>
      <point x="314" y="2" type="curve" smooth="yes"/>
      <point x="531" y="2"/>
      <point x="563" y="143"/>
      <point x="563" y="221" type="curve" smooth="yes"/>
      <point x="563" y="243" type="line" smooth="yes"/>
      <point x="563" y="480"/>
      <point x="324" y="452"/>
      <point x="147" y="457" type="curve"/>
      <point x="147" y="568" type="line"/>
    </contour>
    <contour>
      <point x="147" y="25" type="line"/>
      <point x="147" y="288" type="line"/>
      <point x="147" y="434" type="line"/>
      <point x="325" y="432" type="line" smooth="yes"/>
      <point x="453" y="430"/>
      <point x="535" y="353"/>
      <point x="535" y="233" type="curve" smooth="yes"/>
      <point x="535" y="175"/>
      <point x="526" y="25"/>
      <point x="309" y="25" type="curve" smooth="yes"/>
      <point x="232" y="25" type="line"/>
      <point x="220" y="25" type="line"/>
    </contour>
  </outline>
</glyph>
<glyph name="guilsinglright" format="2">
  <advance width="359"/>
  <unicode hex="203A"/>
  <outline>
    <contour>
      <point x="319" y="231" type="line"/>
      <point x="82" y="498" type="line"/>
      <point x="65" y="480" type="line"/>
      <point x="136" y="399"/>
      <point x="209" y="315"/>
      <point x="281" y="234" type="curve"/>
      <point x="201" y="156"/>
      <point x="121" y="77"/>
      <point x="40" y="0" type="curve"/>
      <point x="59" y="-20" type="line"/>
      <point x="111" y="29"/>
      <point x="162" y="79"/>
      <point x="214" y="129" type="curve" smooth="yes"/>
    </contour>
  </outline>
</glyph>
<glyph name="trademark" format="2">
  <advance width="797"/>
  <unicode hex="2122"/>
  <outline>
    <contour>
      <point x="151" y="684" type="curve" smooth="yes"/>
      <point x="163" y="684" type="line"/>
      <point x="163" y="660"/>
      <point x="162" y="639"/>
      <point x="162" y="615" type="curve" smooth="yes"/>
      <point x="162" y="543" type="line" smooth="yes"/>
      <point x="162" y="507"/>
      <point x="163" y="485"/>
      <point x="163" y="454" type="curve"/>
      <point x="165" y="440"/>
      <point x="158" y="433"/>
      <point x="147" y="433" type="curve" smooth="yes"/>
      <point x="97" y="433" type="line"/>
      <point x="97" y="414" type="line"/>
      <point x="130" y="414"/>
      <point x="256" y="414"/>
      <point x="263" y="416" type="curve"/>
      <point x="263" y="433" type="line"/>
      <point x="223" y="433" type="line" smooth="yes"/>
      <point x="205" y="433"/>
      <point x="183" y="426"/>
      <point x="183" y="463" type="curve" smooth="yes"/>
      <point x="183" y="545"/>
      <point x="184" y="602"/>
      <point x="188" y="684" type="curve"/>
      <point x="238" y="684" type="line"/>
      <point x="267" y="684" type="line" smooth="yes"/>
      <point x="286" y="684"/>
      <point x="299" y="685"/>
      <point x="299" y="667" type="curve" smooth="yes"/>
      <point x="299" y="642"/>
      <point x="303" y="600"/>
      <point x="303" y="600" type="curve"/>
      <point x="303" y="600"/>
      <point x="318" y="596"/>
      <point x="320" y="596" type="curve"/>
      <point x="320" y="698" type="line"/>
      <point x="324" y="699"/>
      <point x="32" y="700"/>
      <point x="32" y="700" type="curve"/>
      <point x="32" y="677"/>
      <point x="30" y="652"/>
      <point x="30" y="628" type="curve" smooth="yes"/>
      <point x="30" y="584" type="line"/>
      <point x="47" y="584" type="line"/>
      <point x="47" y="614" type="line" smooth="yes"/>
      <point x="47" y="694"/>
      <point x="58" y="684"/>
    </contour>
    <contour>
      <point x="693" y="660" type="line" smooth="yes"/>
      <point x="693" y="677"/>
      <point x="703" y="680"/>
      <point x="728" y="680" type="curve" smooth="yes"/>
      <point x="759" y="680" type="line"/>
      <point x="759" y="698" type="line"/>
      <point x="744" y="698"/>
      <point x="725" y="699"/>
      <point x="709" y="699" type="curve" smooth="yes"/>
      <point x="664" y="699" type="line"/>
      <point x="544" y="451" type="line"/>
      <point x="488" y="561" type="line"/>
      <point x="488" y="561"/>
      <point x="489" y="561"/>
      <point x="489" y="561" type="curve"/>
      <point x="428" y="680" type="line"/>
      <point x="485" y="682" type="line"/>
      <point x="485" y="692" type="line" smooth="yes"/>
      <point x="485" y="694"/>
      <point x="486" y="700"/>
      <point x="486" y="702" type="curve"/>
      <point x="348" y="697" type="line"/>
      <point x="348" y="679" type="line"/>
      <point x="373" y="679" type="line"/>
      <point x="385" y="679" type="line" smooth="yes"/>
      <point x="391" y="679"/>
      <point x="403" y="680"/>
      <point x="401" y="655" type="curve"/>
      <point x="401" y="621"/>
      <point x="400" y="568"/>
      <point x="400" y="535" type="curve"/>
      <point x="399" y="454" type="line"/>
      <point x="399" y="441"/>
      <point x="390" y="433"/>
      <point x="378" y="434" type="curve"/>
      <point x="376" y="434"/>
      <point x="365" y="434"/>
      <point x="341" y="435" type="curve"/>
      <point x="340" y="416" type="line"/>
      <point x="366" y="416"/>
      <point x="399" y="415"/>
      <point x="427" y="415" type="curve" smooth="yes"/>
      <point x="480" y="415" type="line"/>
      <point x="480" y="433" type="line"/>
      <point x="443" y="435" type="line"/>
      <point x="425" y="435"/>
      <point x="419" y="435"/>
      <point x="419" y="454" type="curve" smooth="yes"/>
      <point x="419" y="647" type="line"/>
      <point x="475" y="536" type="line" smooth="yes"/>
      <point x="491" y="504"/>
      <point x="520" y="440"/>
      <point x="537" y="408" type="curve"/>
      <point x="547" y="409" type="line"/>
      <point x="670" y="667" type="line"/>
      <point x="673" y="453" type="line" smooth="yes"/>
      <point x="673" y="438"/>
      <point x="671" y="433"/>
      <point x="655" y="432" type="curve" smooth="yes"/>
      <point x="642" y="431"/>
      <point x="626" y="431"/>
      <point x="614" y="431" type="curve"/>
      <point x="613" y="414" type="line"/>
      <point x="662" y="414"/>
      <point x="716" y="413"/>
      <point x="767" y="412" type="curve"/>
      <point x="767" y="431" type="line"/>
      <point x="765" y="431"/>
      <point x="738" y="430"/>
      <point x="719" y="430" type="curve" smooth="yes"/>
      <point x="699" y="430"/>
      <point x="698" y="444"/>
      <point x="698" y="453" type="curve" smooth="yes"/>
    </contour>
  </outline>
</glyph>
